<svg xmlns="http://www.w3.org/2000/svg" xmlns:xlink="http://www.w3.org/1999/xlink" width="47" height="47" viewBox="0 0 47 47"><defs><path id="l2wna" d="M1290.204 446.588c-2.373-5.53-6.404-9.554-11.98-11.933a22.123 22.123 0 0 0-8.76-1.796c-3.052 0-5.95.602-8.736 1.796-5.53 2.373-9.58 6.393-11.957 11.933-1.19 2.776-1.77 5.683-1.77 8.734s.58 5.983 1.77 8.76c2.377 5.54 6.427 9.584 11.957 11.957a21.905 21.905 0 0 0 8.735 1.795c3.051 0 5.971-.607 8.76-1.795 5.576-2.379 9.608-6.427 11.981-11.958a22.017 22.017 0 0 0 1.796-8.759 21.88 21.88 0 0 0-1.796-8.734z"/><path id="l2wnb" d="M1270.89 455.126V442.38c0-.762-.664-1.378-1.427-1.378-.713 0-1.353.616-1.353 1.378v12.942c0 .024.05.123.05.197-.05.443.074.812.369 1.107l7.356 7.357c.492.492 1.402.492 1.895 0 .565-.566.528-1.387 0-1.92z"/></defs><g><g opacity=".07" transform="translate(-1246 -432)"><g opacity=".07"><use fill="#337d3e" xlink:href="#l2wna"/></g></g><g transform="translate(-1246 -432)"><use fill="#fff" fill-opacity="0" stroke="#337d3e" stroke-miterlimit="50" xlink:href="#l2wna"/></g><g transform="translate(-1246 -432)"><use fill="#337d3e" xlink:href="#l2wnb"/></g></g></svg>