<svg xmlns="http://www.w3.org/2000/svg" xmlns:xlink="http://www.w3.org/1999/xlink" width="56" height="44" viewBox="0 0 56 44"><defs><path id="3z1ya" d="M816.232 436h49.943a2.246 2.246 0 0 1 2.247 2.247v37.742a2.246 2.246 0 0 1-2.247 2.247h-49.943a2.247 2.247 0 0 1-2.247-2.247v-37.742a2.247 2.247 0 0 1 2.247-2.247z"/><path id="3z1yb" d="M819.617 467.912v-1.877c16.284 0 31.792-10.474 39.514-26.684l1.695.807c-8.03 16.86-24.206 27.754-41.209 27.754z"/><path id="3z1yc" d="M861.852 446.324a.94.94 0 0 1-.89-.642l-1.536-4.605-4.663 2.337a.939.939 0 1 1-.838-1.68l5.63-2.815a.939.939 0 0 1 1.316.543l1.877 5.631a.94.94 0 0 1-.896 1.231z"/><path id="3z1yd" d="M820.556 475.42h3.754a.94.94 0 0 0 .938-.939v-3.754a.939.939 0 0 0-.938-.938h-3.754a.937.937 0 0 0-.938.938v3.754c0 .518.419.94.938.94z"/><path id="3z1ye" d="M833.695 467.912h-3.754a.939.939 0 0 0-.938.938v5.632c0 .518.42.939.938.939h3.754a.938.938 0 0 0 .938-.94v-5.631a.937.937 0 0 0-.938-.938z"/><path id="3z1yf" d="M843.081 464.157h-3.754a.939.939 0 0 0-.938.94v9.384c0 .518.42.94.938.94h3.754a.939.939 0 0 0 .938-.94v-9.385a.938.938 0 0 0-.938-.939z"/><path id="3z1yg" d="M852.467 458.526h-3.754a.939.939 0 0 0-.938.939v15.017c0 .518.42.938.938.938h3.754c.518 0 .938-.42.938-.938v-15.017a.938.938 0 0 0-.938-.94z"/><path id="3z1yh" d="M861.852 448.202h-3.754a.939.939 0 0 0-.938.939v25.34c0 .519.42.94.938.94h3.754a.938.938 0 0 0 .938-.94v-25.34a.938.938 0 0 0-.938-.94z"/><path id="3z1yi" d="M816.115 436h50.177a2.13 2.13 0 0 1 2.131 2.13v37.976a2.13 2.13 0 0 1-2.13 2.13h-50.178a2.13 2.13 0 0 1-2.13-2.13V438.13a2.13 2.13 0 0 1 2.13-2.13z"/></defs><g><g opacity=".07" transform="translate(-813 -435)"><g opacity=".07"><use fill="#ffffff" xlink:href="#3z1ya"/></g></g><g transform="translate(-813 -435)"><use fill="#ffffff" xlink:href="#3z1yb"/></g><g transform="translate(-813 -435)"><use fill="#ffffff" xlink:href="#3z1yc"/></g><g transform="translate(-813 -435)"><use fill="#ffffff" xlink:href="#3z1yd"/></g><g transform="translate(-813 -435)"><use fill="#ffffff" xlink:href="#3z1ye"/></g><g transform="translate(-813 -435)"><use fill="#ffffff" xlink:href="#3z1yf"/></g><g transform="translate(-813 -435)"><use fill="#ffffff" xlink:href="#3z1yg"/></g><g transform="translate(-813 -435)"><use fill="#ffffff" xlink:href="#3z1yh"/></g><g transform="translate(-813 -435)"><use fill="#fff" fill-opacity="0" stroke="#ffffff" stroke-miterlimit="50" xlink:href="#3z1yi"/></g></g></svg>