<svg xmlns="http://www.w3.org/2000/svg" xmlns:xlink="http://www.w3.org/1999/xlink" width="179" height="141" viewBox="0 0 179 141"><defs><path id="i0ija" d="M424.803 464.892a191.047 191.047 0 0 0 2.96 3.553c.71.832 1.426 1.653 2.143 2.463l.14.159c.675.759 1.35 1.509 2.028 2.248l.21.23a215.99 215.99 0 0 0 1.977 2.119l.236.25a215.716 215.716 0 0 0 4.198 4.29l.178.178c.697.69 1.392 1.369 2.084 2.037l.075.07a199.588 199.588 0 0 0 2.198 2.088 208.96 208.96 0 0 0 2.082 1.924c.046.04.09.082.136.123a243.96 243.96 0 0 0 2.146 1.93c.646.573 1.285 1.135 1.92 1.685l.164.142c.645.558 1.282 1.104 1.914 1.639.037.03.074.063.11.094.66.557 1.31 1.102 1.953 1.633l.016.014c11.72 9.69 20.567 15.055 20.567 15.055l-.002-.011c10.08 7.408 24.44 6.34 33.265-2.957l9.044-9.531c3.888-4.097 3.717-10.631-.38-14.52l-19.91-18.892a10.196 10.196 0 0 0-6.35-2.784 10.396 10.396 0 0 0-4.835.829 10.157 10.157 0 0 0-3.333 2.335L469.6 476.073c-.262.276-.514.559-.758.846a3.259 3.259 0 0 1-.117.075l-.012.007a3.202 3.202 0 0 1-.368.19l-.015.007a4.521 4.521 0 0 1-.248.1l-.006.004a5.564 5.564 0 0 1-1.055.274h-.006a6.47 6.47 0 0 1-.44.057l-.02.003a7.779 7.779 0 0 1-.48.029h-.028a8.452 8.452 0 0 1-.526-.002l-.034-.001c-.184-.007-.375-.02-.575-.04l-.038-.003a11.54 11.54 0 0 1-1.353-.223l-.015-.003a16.236 16.236 0 0 1-2.478-.785c-4.682-1.878-11.652-6.734-21.475-18.234-21.598-25.288-12.927-32.18-12.927-32.18l-.048-.011c.088-.06.178-.113.265-.172l14.528-9.986c4.656-3.2 5.847-9.625 2.648-14.28l-8.053-11.717-7.494-10.904a10.215 10.215 0 0 0-5.634-4.043c-2.85-.814-6.028-.403-8.646 1.397l-9.198 6.32c-.005.004-.01.009-.016.012-.366.253-.725.513-1.074.78-.121.092-.235.188-.353.28-.232.184-.464.367-.688.556-.137.115-.268.235-.403.353-.197.174-.395.347-.587.525-.14.13-.273.264-.41.396-.178.172-.355.345-.528.522-.137.14-.27.285-.404.428a24.389 24.389 0 0 0-.875.985 25.315 25.315 0 0 0-1.217 1.552c-.123.169-.244.34-.364.51a28.143 28.143 0 0 0-.708 1.078c-.11.177-.217.357-.324.537-.111.189-.222.377-.33.568-.097.174-.19.349-.282.525-.108.2-.215.4-.316.605-.083.164-.16.33-.238.497-.103.218-.21.436-.306.656-.061.138-.116.278-.175.417-.107.252-.215.504-.314.759l-.008.022a27.644 27.644 0 0 0-1.043 3.316c-.014.054-.03.108-.042.16-.078.32-.145.64-.21.96-.018.087-.038.173-.055.259-.06.31-.111.623-.161.936l-.047.29c-.046.31-.084.622-.12.935-.01.098-.023.196-.032.294-.033.315-.058.63-.08.948l-.017.28a28.361 28.361 0 0 0-.036 2.224c0 .073.004.147.007.22.01.346.027.692.05 1.038l.014.159c.028.366.062.732.104 1.097l.008.064a26.997 26.997 0 0 0 2.932 9.41l-.006-.001s7.792 19.995 24.755 42.233a194.332 194.332 0 0 0 3.707 4.709z"/><path id="i0ijb" d="M423.196 407.977c-1.787 4.905-8.359 7.015-14.68 4.712-6.32-2.303-9.995-8.146-8.208-13.052 1.788-4.905 8.361-7.015 14.681-4.712 6.32 2.303 9.995 8.146 8.207 13.052z"/><path id="i0ijc" d="M487.378 452.866a3.842 3.842 0 0 1-3.8-3.222l-1.06-6.506c-.48-.175-.957-.366-1.426-.566l-5.239 3.988c-1.45 1.1-3.653.99-4.98-.269l-6.544-6.196a3.878 3.878 0 0 1-.648-4.782l3.638-6.046a27.646 27.646 0 0 1-1.14-2.762l-6.942-1.527a3.833 3.833 0 0 1-3.024-3.765l.005-9.015a3.838 3.838 0 0 1 3.231-3.797l7.076-1.153a28.53 28.53 0 0 1 .933-2.094l-3.89-6.367a3.87 3.87 0 0 1 .614-4.782l6.514-6.241c1.307-1.271 3.5-1.41 4.974-.302l5.923 4.449c.278-.11.555-.216.84-.318l1.15-7.316a3.835 3.835 0 0 1 3.795-3.223h9.015a3.87 3.87 0 0 1 3.761 3.027l1.65 7.508c.256.094.51.183.761.285l6.343-4.306c1.463-.986 3.532-.823 4.811.391l6.547 6.196a3.828 3.828 0 0 1 .533 4.962l-4.048 5.96c.358.717.684 1.45.977 2.196l7.08 1.157a3.832 3.832 0 0 1 3.227 3.796l-.005 9.015a3.863 3.863 0 0 1-3.027 3.756l-6.94 1.52a26.305 26.305 0 0 1-1.016 2.489l3.867 5.618a3.841 3.841 0 0 1-.505 4.958l-6.506 6.241c-1.276 1.226-3.34 1.401-4.812.419l-5.67-3.797c-.583.261-1.18.506-1.8.73l-1.463 6.669a3.878 3.878 0 0 1-3.765 3.022zm.513-4.448h8.022l1.63-7.418a2.231 2.231 0 0 1 1.502-1.646 22.713 22.713 0 0 0 3.548-1.434 2.224 2.224 0 0 1 2.25.134l6.322 4.233 5.79-5.553-4.32-6.273a2.223 2.223 0 0 1-.13-2.302 22.942 22.942 0 0 0 1.706-4.167 2.217 2.217 0 0 1 1.655-1.532l7.711-1.691.005-8.021-7.859-1.287a2.236 2.236 0 0 1-1.748-1.483 22.506 22.506 0 0 0-1.76-3.935 2.221 2.221 0 0 1 .098-2.347l4.52-6.656-5.828-5.516-6.416 4.355a1.638 1.638 0 0 1-.215.224 2.224 2.224 0 0 1-2.424.35c-.9-.423-1.845-.749-2.803-1.051a2.232 2.232 0 0 1-1.548-2.049l-1.69-7.85h-8.018l-1.299 7.952-.086-.017c-.199.832-.712 1.732-1.425 1.96-.99.318-1.96.656-2.884 1.1a2.225 2.225 0 0 1-2.636-.546l-6.156-4.624-5.789 5.549 4.12 6.734c.048.065.1.13.141.199.465.697.501 1.593.094 2.322a23.328 23.328 0 0 0-1.698 3.817 2.222 2.222 0 0 1-1.752 1.479l-7.854 1.283-.004 8.021 7.711 1.695a2.235 2.235 0 0 1 1.654 1.536 22.729 22.729 0 0 0 1.788 4.334 2.218 2.218 0 0 1-.053 2.204l-4.029 6.689 5.821 5.516 5.904-4.489a2.227 2.227 0 0 1 2.342-.22c1.08.537 2.2.977 3.365 1.344a2.236 2.236 0 0 1 1.528 1.76zm-8.68-31.067c0-7.251 5.898-13.15 13.145-13.15 7.252 0 13.15 5.899 13.15 13.15.004 7.248-5.894 13.147-13.15 13.147-7.247 0-13.146-5.899-13.146-13.147zm4.448 0c0 4.795 3.902 8.698 8.697 8.698 4.8 0 8.702-3.903 8.702-8.698 0-4.798-3.903-8.701-8.702-8.701-4.795 0-8.697 3.903-8.697 8.701z"/><path id="i0ijd" d="M546.786 454.077a2.289 2.289 0 0 1-2.263-1.92l-.63-3.874a16.149 16.149 0 0 1-.85-.337l-3.12 2.375c-.863.655-2.176.59-2.967-.16l-3.896-3.69a2.31 2.31 0 0 1-.386-2.85l2.166-3.6a16.635 16.635 0 0 1-.68-1.644l-4.134-.91a2.28 2.28 0 0 1-1.799-2.242l.002-5.37a2.284 2.284 0 0 1 1.923-2.26l4.215-.687c.167-.422.354-.84.556-1.247l-2.318-3.792a2.306 2.306 0 0 1 .367-2.848l3.88-3.717c.778-.757 2.084-.84 2.961-.18l3.529 2.65c.165-.066.329-.13.499-.19l.684-4.357a2.285 2.285 0 0 1 2.261-1.92h5.369c1.071 0 2.012.758 2.241 1.804l.982 4.47c.152.057.303.11.453.17l3.778-2.564c.871-.587 2.104-.49 2.866.233l3.898 3.69a2.28 2.28 0 0 1 .318 2.956l-2.412 3.549c.214.427.409.864.583 1.308l4.216.689a2.283 2.283 0 0 1 1.922 2.26l-.003 5.37c0 1.07-.759 2.01-1.802 2.237l-4.134.905a15.129 15.129 0 0 1-.605 1.482l2.303 3.346a2.287 2.287 0 0 1-.301 2.953l-3.874 3.717c-.76.73-1.99.834-2.866.25l-3.377-2.262c-.347.156-.703.3-1.072.435l-.872 3.97a2.308 2.308 0 0 1-2.242 1.802zm.306-2.65h4.777l.971-4.418c.101-.463.444-.837.895-.98.735-.23 1.439-.51 2.113-.854a1.327 1.327 0 0 1 1.34.08l3.765 2.52 3.447-3.306-2.571-3.736a1.324 1.324 0 0 1-.078-1.371 13.75 13.75 0 0 0 1.017-2.482c.138-.461.514-.81.985-.912l4.593-1.007.002-4.777-4.68-.767a1.33 1.33 0 0 1-1.041-.883 13.396 13.396 0 0 0-1.048-2.344 1.32 1.32 0 0 1 .058-1.397l2.691-3.965-3.47-3.285-3.821 2.594a1.322 1.322 0 0 1-1.572.342 13.362 13.362 0 0 0-1.669-.626 1.33 1.33 0 0 1-.922-1.22l-1.007-4.676h-4.774l-.775 4.736-.05-.01c-.12.495-.425 1.032-.85 1.168-.589.189-1.167.39-1.718.655a1.326 1.326 0 0 1-1.569-.325l-3.666-2.754-3.448 3.304 2.453 4.01c.029.04.06.079.085.12.277.415.299.948.055 1.383-.402.72-.742 1.487-1.011 2.273a1.325 1.325 0 0 1-1.043.88l-4.678.765-.002 4.777 4.593 1.009c.468.105.846.454.984.915.268.9.626 1.769 1.066 2.58.222.414.211.914-.032 1.314l-2.4 3.984 3.468 3.285 3.515-2.674a1.325 1.325 0 0 1 1.395-.131c.643.32 1.31.582 2.004.8.475.15.827.556.91 1.049zm-5.17-18.502c0-4.318 3.514-7.831 7.829-7.831 4.319 0 7.832 3.513 7.832 7.83.003 4.318-3.511 7.83-7.832 7.83-4.315 0-7.829-3.512-7.829-7.83zm2.649 0a5.187 5.187 0 0 0 5.18 5.18 5.187 5.187 0 0 0 5.183-5.18 5.188 5.188 0 0 0-5.183-5.182 5.187 5.187 0 0 0-5.18 5.182z"/></defs><g><g opacity=".07" transform="translate(-392 -374)"><g opacity=".07"><use fill="#337d3e" xlink:href="#i0ija"/></g></g><g opacity=".2" transform="translate(-392 -374)"><g opacity=".2"><use fill="#fff" xlink:href="#i0ijb"/></g></g><g opacity=".66" transform="translate(-392 -374)"><g opacity=".66"><use fill="#337d3e" xlink:href="#i0ijc"/></g></g><g opacity=".66" transform="translate(-392 -374)"><g opacity=".66"><use fill="#337d3e" xlink:href="#i0ijd"/></g></g><g transform="translate(-392 -374)"><use fill="#fff" fill-opacity="0" stroke="#337d3e" stroke-miterlimit="50" xlink:href="#i0ija"/></g></g></svg>