<svg xmlns="http://www.w3.org/2000/svg" xmlns:xlink="http://www.w3.org/1999/xlink" width="112" height="132" viewBox="0 0 112 132"><defs><path id="zgcya" d="M1016 328.374c0 30.928-25.072 56-56 56s-56-25.072-56-56 25.072-56 56-56 56 25.072 56 56z"/><path id="zgcyb" d="M973.008 312.016l14.77 10.078a7.713 7.713 0 0 1 3.368 6.37v1.35h-18.138z"/><path id="zgcyc" d="M946.992 312.016l-14.77 10.078a7.713 7.713 0 0 0-3.368 6.37v1.35h18.138z"/><path id="zgcyd" d="M943.161 314.63l-2.913 1.988s.68 7.57 3.347 13.197h3.397z"/><path id="zgcye" d="M976.839 314.63l2.913 1.988s-.68 7.57-3.347 13.197h-3.397z"/><path id="zgcyf" d="M952.222 332.537c-.74 0-1.288.686-1.124 1.407l1.297 8.888c.119.525.586.898 1.124.898h6.273v-11.193z"/><path id="zgcyg" d="M967.19 342.833l1.296-8.888a1.152 1.152 0 0 0-1.124-1.407h-7.57v11.193h6.273c.538 0 1.005-.373 1.124-.898z"/><path id="zgcyh" d="M951.326 335.511l.623 4.267h15.687l.622-4.267z"/><path id="zgcyi" d="M946.992 271.174c-3.57 9.297-6.115 21.78-4.7 37.613 0 0 1.861 17.088 7.613 27.916h10.452v-65.53z"/><path id="zgcyj" d="M960.357 253.528a6.947 6.947 0 0 0-5.435 2.87c-2.489 3.429-5.457 8.338-7.93 14.776h13.365z"/><path id="zgcyk" d="M973.828 271.174h-13.47v65.529h9.512s6.6-9.136 7.952-29.27c.78-11.601-.15-24.847-3.994-36.26z"/><path id="zgcyl" d="M973.828 271.174c-1.89-5.613-4.482-10.783-7.926-15.093-1.417-1.774-3.49-2.615-5.545-2.553v17.646z"/><path id="zgcym" d="M970.71 290.605c0 5.719-4.635 10.354-10.353 10.354s-10.354-4.635-10.354-10.354c0-5.72 4.636-10.354 10.354-10.354 5.718 0 10.354 4.635 10.354 10.354z"/><path id="zgcyn" d="M968.125 290.605a7.768 7.768 0 1 1-15.536 0 7.768 7.768 0 0 1 15.536 0z"/><path id="zgcyo" d="M959.985 340.359a1.95 1.95 0 0 1-1.949-1.95v-15.676a1.949 1.949 0 1 1 3.898 0v15.677a1.95 1.95 0 0 1-1.949 1.949z"/><path id="zgcyp" d="M952.922 292.857s4.442.72 7.063-3.697c1.78-3 .373-6.323.373-6.323s-4.671-.177-7.024 4.446c0 0-1.395 2.363-.412 5.574z"/><path id="zgcyq" d="M964.212 343.73h-8.424s-3.442 4.88-.685 12.691c0 0 .995 3.405 4.335 6.142a.854.854 0 0 0 1.125 0c3.339-2.737 4.335-6.142 4.335-6.142 2.756-7.812-.686-12.69-.686-12.69z"/><path id="zgcyr" d="M956.855 343.73s-2.76 5.752.104 11.54c.287.58.853.755 1.295.408l.914-.716v3.092c0 1.139.974 1.77 1.606 1.033 2.048-2.395 5.03-7.53 2.428-15.356z"/><path id="zgcys" d="M957.953 343.73s-1.434 2.1-.209 5.86c0 0 .343 1.084 1.158 1.82.266.24.597-.086.572-.567-.06-1.152-.023-2.955.73-3.576.71-.583 1.41.22 1.838.911.216.348.586.17.645-.309.136-1.076.13-2.744-.818-4.139z"/></defs><g><g opacity=".07" transform="translate(-904 -253)"><g opacity=".07"><use fill="#337d3e" xlink:href="#zgcya"/></g></g><g transform="translate(-904 -253)"><use fill="#337d3e" xlink:href="#zgcyb"/></g><g transform="translate(-904 -253)"><use fill="#337d3e" xlink:href="#zgcyc"/></g><g opacity=".42" transform="translate(-904 -253)"><g opacity=".42"><use fill="#c7c7c7" xlink:href="#zgcyd"/></g></g><g opacity=".42" transform="translate(-904 -253)"><g opacity=".42"><use fill="#c7c7c7" xlink:href="#zgcye"/></g></g><g transform="translate(-904 -253)"><use fill="#383838" xlink:href="#zgcyf"/></g><g transform="translate(-904 -253)"><use fill="#383838" xlink:href="#zgcyg"/></g><g opacity=".63" transform="translate(-904 -253)"><g opacity=".63"><use fill="#c7c7c7" xlink:href="#zgcyh"/></g></g><g transform="translate(-904 -253)"><use fill="#fff" xlink:href="#zgcyi"/></g><g transform="translate(-904 -253)"><use fill="#9bbd37" xlink:href="#zgcyj"/></g><g transform="translate(-904 -253)"><use fill="#a5d0fa" xlink:href="#zgcyk"/></g><g transform="translate(-904 -253)"><use fill="#9bbd37" xlink:href="#zgcyl"/></g><g transform="translate(-904 -253)"><use fill="#383838" xlink:href="#zgcym"/></g><g transform="translate(-904 -253)"><use fill="#337d3e" xlink:href="#zgcyn"/></g><g transform="translate(-904 -253)"><use fill="#9bbd37" xlink:href="#zgcyo"/></g><g opacity=".42" transform="translate(-904 -253)"><g opacity=".42"><use fill="#fff" xlink:href="#zgcyp"/></g></g><g transform="translate(-904 -253)"><use fill="#fbae02" xlink:href="#zgcyq"/></g><g transform="translate(-904 -253)"><use fill="#f5d850" xlink:href="#zgcyr"/></g><g transform="translate(-904 -253)"><use fill="#faec96" xlink:href="#zgcys"/></g></g></svg>