<svg xmlns="http://www.w3.org/2000/svg" xmlns:xlink="http://www.w3.org/1999/xlink" width="49" height="48" viewBox="0 0 49 48"><defs><path id="x5zla" d="M447 455.161c0 12.143-9.287 22.111-21.145 23.201v.001h-.014c-.707.065-1.422.103-2.146.103-.65 0-1.295-.034-1.933-.087l.003.001-21.375.086v-23.305c0-12.87 10.434-23.305 23.305-23.305S447 442.29 447 455.161zm-21.151 23.202h-.002.002zm-8.435-.76c-.002-.002-.004-.003-.007-.003l.007.002z"/><path id="x5zlb" d="M414.897 449.207a2.757 2.757 0 1 1 5.515 0 2.757 2.757 0 0 1-5.514 0z"/><path id="x5zlc" d="M427.397 449.207a2.758 2.758 0 0 1 5.513 0 2.757 2.757 0 1 1-5.514 0z"/><path id="x5zld" d="M433.913 460.497c-1.708 3.95-5.709 6.503-10.19 6.503-4.58 0-8.605-2.565-10.254-6.536a1.333 1.333 0 1 1 2.464-1.022c1.234 2.972 4.292 4.89 7.79 4.89 3.418 0 6.457-1.92 7.743-4.893a1.333 1.333 0 1 1 2.447 1.058z"/></defs><g><g transform="translate(-399 -431)"><use fill="#fff" fill-opacity="0" stroke="#337d3e" stroke-miterlimit="50" xlink:href="#x5zla"/></g><g opacity=".4" transform="translate(-399 -431)"><g opacity=".4"><use fill="#fff" fill-opacity="0" stroke="#fccd03" stroke-miterlimit="50" xlink:href="#x5zla"/></g></g><g opacity=".07" transform="translate(-399 -431)"><g opacity=".07"><use fill="#337d3e" xlink:href="#x5zla"/></g></g><g transform="translate(-399 -431)"><use fill="#337d3e" xlink:href="#x5zlb"/></g><g transform="translate(-399 -431)"><use fill="#337d3e" xlink:href="#x5zlc"/></g><g transform="translate(-399 -431)"><use fill="#337d3e" xlink:href="#x5zld"/></g></g></svg>