<svg xmlns="http://www.w3.org/2000/svg" xmlns:xlink="http://www.w3.org/1999/xlink" width="72" height="26" viewBox="0 0 72 26"><defs><path id="rcjaa" d="M1278.129 748.303a2.907 2.907 0 0 0-1.413-.618c-.53-.177-1.148-.177-1.678-.177h-2.561v7.507h2.737c.53 0 1.06-.089 1.59-.265.53-.177.972-.354 1.325-.707s.706-.706.883-1.148c.265-.53.353-1.06.353-1.589 0-.619-.088-1.237-.353-1.767-.177-.53-.441-.883-.883-1.236zm-.618 3.975c-.09.265-.354.53-.53.706-.265.177-.531.354-.883.354-.354.088-.707.088-1.06.088h-.883v-4.416h.97c.355 0 .707 0 .973.177.265.088.618.177.795.442.264.176.44.44.529.706.177.265.177.618.177.972.088.264.088.618-.088.97z"/><path id="rcjab" d="M1285.724 752.719l-3.18-5.21h-2.296v7.506h1.678v-5.387l3.356 5.387h2.12v-7.506h-1.678z"/><path id="rcjac" d="M1276.98 749.54c-.265-.177-.53-.353-.795-.442-.353-.088-.618-.176-.972-.176h-1.059v4.415h.884c.352 0 .706 0 1.06-.088.264-.088.617-.177.882-.353a1.38 1.38 0 0 0 .53-.707c.176-.353.176-.706.176-1.06 0-.353-.088-.618-.176-.971-.176-.176-.353-.441-.53-.618z"/><path id="rcjad" d="M1279.63 738.677c6.8 0 12.363 5.564 12.363 12.364 0 6.8-5.564 12.364-12.363 12.364-6.8 0-12.364-5.564-12.364-12.364 0-6.8 5.564-12.364 12.364-12.364zm-.53 14.218a2.711 2.711 0 0 0 .265-1.677c0-.619-.089-1.237-.354-1.767-.264-.44-.53-.883-.97-1.148-.443-.265-.884-.53-1.414-.618-.53-.088-1.06-.176-1.678-.176h-2.473v7.506h2.826c.53 0 1.06-.088 1.59-.265.442-.177.883-.353 1.324-.706.354-.265.706-.707.883-1.149zm8.301-5.386h-1.678v5.21l-3.179-5.21h-2.208v7.506h1.678v-5.299l3.267 5.3h2.12z"/><path id="rcjae" d="M1297.028 746.714h6.446v1.677h-4.77v2.65h4.416v1.59h-4.415v4.15h-1.766zm7.948 1.677a1.193 1.193 0 0 1 0-1.5c.265-.177.529-.266.794-.266.266 0 .618.09.795.265l.089.09c.352.44.352 1.058-.09 1.411-.264.177-.528.265-.794.265-.353.09-.618-.088-.794-.265zm.004 8.389v-6.8h1.68v6.8zm3.616-6.799h1.59v1.06c.177-.353.353-.618.706-.883s.884-.354 1.325-.354c.354 0 .795.09 1.148.265.353.177.618.354.795.62.176.264.353.528.44.882.09.265.09.618.09.971v4.24h-1.678v-4.063c-.09-.177-.09-.442-.177-.618-.09-.177-.176-.354-.353-.53a1.656 1.656 0 0 0-.706-.177c-.266 0-.442.088-.707.177-.177.088-.353.176-.442.353l-.264.53c-.09.176-.09.441-.09.618v3.71h-1.677zm13.512 5.917a1.922 1.922 0 0 1-.972.883 3.533 3.533 0 0 1-1.324.265c-.53 0-.972-.088-1.413-.265a2.415 2.415 0 0 1-1.06-.795c-.353-.353-.53-.706-.707-1.148a4.008 4.008 0 0 1-.264-1.413c0-.53.088-.97.264-1.413.177-.44.443-.795.707-1.148.354-.353.706-.618 1.06-.795a3.553 3.553 0 0 1 1.324-.265c.354 0 .618 0 .884.09.177.087.44.175.618.264.088.088.265.265.44.353.178.088.266.265.355.353v-4.769h1.678v10.686h-1.59zm-3.886-3.268c-.177.442-.177.972 0 1.502.089.176.177.441.354.618l.087.088c.795.795 2.032.707 2.827-.088.087-.177.264-.353.353-.618.177-.442.177-.972 0-1.502-.09-.176-.177-.44-.353-.618l-.088-.088c-.795-.795-2.032-.707-2.826.088-.09.177-.265.353-.354.618zm8.654 1.325c.089.442.266.883.618 1.148.354.265.795.442 1.237.442a2.36 2.36 0 0 0 1.06-.265c.353-.177.619-.353.794-.618l1.237.883a3.903 3.903 0 0 1-1.325 1.06c-.441.264-.971.353-1.501.353-.441 0-.971-.089-1.413-.265-.441-.177-.795-.354-1.148-.707-.354-.353-.618-.706-.795-1.148-.353-.883-.353-1.943 0-2.914.177-.442.44-.795.795-1.148.353-.265.707-.53 1.148-.707a3.674 3.674 0 0 1 2.738 0c.353.177.707.354.97.707.266.353.443.706.62 1.148.176.53.264 1.06.264 1.59v.441zm3.534-1.236c0-.442-.09-.795-.443-1.148-.352-.354-.794-.442-1.236-.442-.442 0-.883.177-1.237.442-.264.265-.53.706-.53 1.148zm3.532-2.738h1.677v1.06c.177-.353.442-.618.795-.883.354-.265.795-.354 1.237-.354h.264c.089 0 .177.09.265.09v1.677c-.176 0-.265-.089-.441-.089h-.442c-.353-.088-.706 0-.971.177l-.53.53c-.09.176-.177.353-.264.53-.09.176-.09.265-.09.441v3.621h-1.677z"/></defs><g><g transform="translate(-1267 -738)"><use fill="#f4f4f4" xlink:href="#rcjaa"/></g><g transform="translate(-1267 -738)"><use fill="#f4f4f4" xlink:href="#rcjab"/></g><g transform="translate(-1267 -738)"><use fill="#9f9f9f" xlink:href="#rcjac"/></g><g transform="translate(-1267 -738)"><use fill="#9f9f9f" xlink:href="#rcjad"/></g><g transform="translate(-1267 -738)"><use fill="#9f9f9f" xlink:href="#rcjae"/></g></g></svg>