<svg xmlns="http://www.w3.org/2000/svg" xmlns:xlink="http://www.w3.org/1999/xlink" width="80" height="12" viewBox="0 0 80 12"><defs><path id="bjsua" d="M1290.27 552.678c.167-1.33.914-1.993.914-1.993a4.146 4.146 0 0 1 .987-2.688 4.133 4.133 0 0 1 3.165-1.464 4.153 4.153 0 0 1 4.152 4.152c0 2.293-1.777 4.318-4.07 4.318-1.244 0-1.992-.332-2.656-.83-.996-.831-.498-1.827-.498-1.827.166-.498.927-1.288 1.827-.498 1.162 1.162-.5 1.993-.5 1.993.5.664 1.496.498 1.496.498.83-.831.88-1.885.663-2.491-.498-1.827-2.874-2.064-3.819-1.33-1.765 1.372-1.163 3.156-.759 3.732a4.685 4.685 0 0 0 1.59 1.418c.762.402 1.651.498 2.573.498a5.481 5.481 0 1 0 0-10.962c-3.027 0-5.575 2.455-5.48 5.48.016.51.083 1.33.415 1.994z"/><path id="bjsub" d="M1303.254 553.67v-4.114h.51v4.138c0 1.218.743 1.948 1.912 1.948 1.18 0 1.935-.73 1.935-1.96v-4.126h.51v4.102c0 1.497-.948 2.471-2.445 2.471-1.497 0-2.422-.974-2.422-2.459z"/><path id="bjsuc" d="M1311.043 549.556h1.923v.475h-1.923v3.956c0 1.193.646 1.631 1.559 1.631.181 0 .352-.012.546-.049v.463a4.1 4.1 0 0 1-.608.048c-1.168 0-2.008-.657-2.008-2.069v-3.98h-.999v-.475h1.011v-1.522h.499z"/><path id="bjsud" d="M1314.523 549.556h.414l.05 1.205h.011a2.103 2.103 0 0 1 1.911-1.266c.134 0 .28.012.39.025v.5a3.47 3.47 0 0 0-.39-.026c-.912 0-1.863.645-1.874 1.936v4.09h-.512z"/><path id="bjsue" d="M1323.518 552.965h-5.124c.085 1.667 1.132 2.677 2.593 2.677.778 0 1.607-.28 2.3-.937v.597a3.608 3.608 0 0 1-2.324.827c-1.815 0-3.08-1.29-3.08-3.323 0-2.093 1.436-3.36 2.994-3.36 1.436 0 2.666 1.096 2.666 3.214 0 .122-.012.232-.025.305zm-.486-.463c-.024-1.753-1.06-2.568-2.155-2.568-1.24 0-2.362.973-2.47 2.568z"/><path id="bjsuf" d="M1324.905 552.794c0-2.07 1.425-3.347 2.947-3.347 1.034 0 2.069.572 2.544 1.728l.073-1.62h.4v6.465h-.4l-.073-1.62c-.475 1.169-1.51 1.729-2.533 1.729-1.533 0-2.958-1.278-2.958-3.335zm5.478-.012c0-1.73-1.132-2.836-2.482-2.836-1.34 0-2.484 1.095-2.484 2.848 0 1.74 1.156 2.848 2.495 2.848 1.327 0 2.47-1.107 2.47-2.86z"/><path id="bjsug" d="M1335.848 555.642c.512 0 1.18-.122 1.74-.536v.573c-.498.304-1.107.45-1.74.45-1.752 0-3.128-1.4-3.128-3.347 0-1.899 1.363-3.336 3.116-3.336.597 0 1.205.11 1.753.463v.572c-.572-.414-1.156-.536-1.765-.536-1.351 0-2.593 1.108-2.593 2.837 0 1.765 1.254 2.86 2.617 2.86z"/><path id="bjsuh" d="M1339.9 550.579h.013c.365-.706 1.168-1.132 2.045-1.132 1.387 0 2.288.815 2.288 2.288v4.285h-.51v-4.102c0-1.29-.647-1.972-1.815-1.972-1.059 0-2.02.609-2.02 1.862v4.212h-.512v-9.677h.511z"/><path id="bjsui" d="M1346.57 546.963h2.216c2.142 0 3.543 1.095 3.543 2.946 0 1.838-1.364 3.043-3.506 3.043h-1.12v3.067h-1.132zm4.614 2.97c0-1.229-.89-1.91-2.301-1.91h-1.18v3.883h1.18c1.412 0 2.3-.73 2.3-1.972z"/><path id="bjsuj" d="M1353.82 556.02v-9.74h1.12v9.74z"/><path id="bjsuk" d="M1356.928 553.488v-4.053h1.12v4.078c0 1.01.597 1.606 1.558 1.606.986 0 1.607-.596 1.607-1.606v-4.078h1.119v4.053c0 1.583-1.034 2.678-2.726 2.678-1.68 0-2.678-1.095-2.678-2.678z"/><path id="bjsul" d="M1368.345 549.86v1.108c-.475-.402-1.192-.682-1.972-.682-.828 0-1.29.353-1.29.89 0 .583.573.802 1.46 1.058 1.01.292 2.156.62 2.156 1.947 0 1.205-.938 1.984-2.46 1.984-.852 0-1.667-.243-2.276-.73v-1.205c.51.523 1.29.937 2.24.937.888 0 1.4-.389 1.4-.974 0-.633-.621-.84-1.571-1.132-1.083-.328-2.044-.68-2.044-1.838 0-1.108.913-1.935 2.374-1.935.754 0 1.52.22 1.983.572z"/></defs><g><g transform="translate(-1289 -545)"><use fill="#9f9f9f" xlink:href="#bjsua"/></g><g transform="translate(-1289 -545)"><use fill="#9f9f9f" xlink:href="#bjsub"/></g><g transform="translate(-1289 -545)"><use fill="#9f9f9f" xlink:href="#bjsuc"/></g><g transform="translate(-1289 -545)"><use fill="#9f9f9f" xlink:href="#bjsud"/></g><g transform="translate(-1289 -545)"><use fill="#9f9f9f" xlink:href="#bjsue"/></g><g transform="translate(-1289 -545)"><use fill="#9f9f9f" xlink:href="#bjsuf"/></g><g transform="translate(-1289 -545)"><use fill="#9f9f9f" xlink:href="#bjsug"/></g><g transform="translate(-1289 -545)"><use fill="#9f9f9f" xlink:href="#bjsuh"/></g><g transform="translate(-1289 -545)"><use fill="#9f9f9f" xlink:href="#bjsui"/></g><g transform="translate(-1289 -545)"><use fill="#9f9f9f" xlink:href="#bjsuj"/></g><g transform="translate(-1289 -545)"><use fill="#9f9f9f" xlink:href="#bjsuk"/></g><g transform="translate(-1289 -545)"><use fill="#9f9f9f" xlink:href="#bjsul"/></g></g></svg>